# xmcd
#
# Track frame offsets: 
#        150
#        13342
#        30915
#        45652
#        60589
#        79212
#        93877
#        109607
#        125115
#        138292
#        152515
#        163205
#        178040
#        193037
#        204957
#        218522
#        234770
#        249385
#        265152
#        278202
#
# Disc length: 3913 seconds
#
# Revision: 0
# Processed by: cddbd v1.5.2PL0 Copyright (c) Steve Scherf et al.
# Submitted via: ExactAudioCopy v0.99pb3
#
DISCID=080f4714
DTITLE=Bosse and Anita - Country Collection
DYEAR=1900
DGENRE=
TTITLE0=Jag är på väg
TTITLE1=Jag har vandrat här så länge
TTITLE2=Jag skall aldrig tvivla mer
TTITLE3=Jag har en boning bortom bergen
TTITLE4=Så nära - Men ändå långt bort
TTITLE5=En kväll för länge sen'
TTITLE6=När jag såg hans ljus
TTITLE7=Medan ännu finns tid
TTITLE8=Sången tonar än
TTITLE9=Siince i met you
TTITLE10=Vi skall mötas på den andra sidan floden
TTITLE11=Tog du vara på din tid
TTITLE12=Lyft din blick
TTITLE13=Jag skall vakna där en morgon
TTITLE14=Take my hand precious lord
TTITLE15=Har du mött hans kärlek
TTITLE16=Lugna hamn
TTITLE17=Det finns en som ser dig
TTITLE18=Ett hopp om frihet
TTITLE19=När lågan sakta brinner ut
EXTD=
EXTT0=
EXTT1=
EXTT2=
EXTT3=
EXTT4=
EXTT5=
EXTT6=
EXTT7=
EXTT8=
EXTT9=
EXTT10=
EXTT11=
EXTT12=
EXTT13=
EXTT14=
EXTT15=
EXTT16=
EXTT17=
EXTT18=
EXTT19=
PLAYORDER=
